<?xml version="1.0" encoding="utf-8"?>
<!-- Generator: Adobe Illustrator 25.4.1, SVG Export Plug-In . SVG Version: 6.00 Build 0)  -->
<svg version="1.1" id="Layer_1" xmlns="http://www.w3.org/2000/svg" xmlns:xlink="http://www.w3.org/1999/xlink" x="0px" y="0px"
	 viewBox="0 0 300 300" style="enable-background:new 0 0 300 300;" xml:space="preserve">
<style type="text/css">
	.st0{fill:url(#SVGID_1_);}
	.st1{fill:url(#SVGID_00000133518047533859869190000000851319282790089105_);}
</style>
<g>
	<g>
		<linearGradient id="SVGID_1_" gradientUnits="userSpaceOnUse" x1="75.7899" y1="19.9174" x2="215.6127" y2="262.0975">
			<stop  offset="0" style="stop-color:#F9F397"/>
			<stop  offset="0.3827" style="stop-color:#E0AB3E"/>
			<stop  offset="0.6955" style="stop-color:#E0AB3E"/>
			<stop  offset="1" style="stop-color:#B88A44"/>
		</linearGradient>
		<path class="st0" d="M24.4,227.4c-14.9-23.6-22.8-51-22.8-79C1.6,66.6,68.2,0,150,0s148.4,66.6,148.4,148.4
			c0,28.1-7.9,55.4-22.8,79l-3.7-2.3c14.5-22.9,22.1-49.5,22.1-76.7C294.1,69,229.4,4.3,150,4.3S5.9,69,5.9,148.4
			c0,27.3,7.6,53.8,22.1,76.7L24.4,227.4z"/>
	</g>
	
		<linearGradient id="SVGID_00000128473282072114381860000007982876397935231397_" gradientUnits="userSpaceOnUse" x1="73.3349" y1="49.3565" x2="211.1497" y2="288.0586">
		<stop  offset="0" style="stop-color:#F9F397"/>
		<stop  offset="0.3827" style="stop-color:#E0AB3E"/>
		<stop  offset="0.6955" style="stop-color:#E0AB3E"/>
		<stop  offset="1" style="stop-color:#B88A44"/>
	</linearGradient>
	<path style="fill:url(#SVGID_00000128473282072114381860000007982876397935231397_);" d="M32.3,243.8l5.9-9.2l1.5,1.8l-2.9,4.4
		l-2,2.7l0,0l3-1.5l4.8-2l1.4,1.7l-10.2,4L32.3,243.8z M45.3,250.6c2.4-2.5,5-2.6,7-0.7c2,1.9,2,4.5-0.4,7c-2.4,2.5-5,2.6-7,0.7
		C42.8,255.7,42.8,253.1,45.3,250.6z M49.6,255.8l1.1-1.1c1.1-1.2,1.2-2.4,0.2-3.4c-1-0.9-2.2-0.8-3.4,0.4l-1.1,1.1
		c-1.1,1.2-1.2,2.4-0.2,3.4C47.2,257.1,48.4,257,49.6,255.8z M57,267.9l2.5-3.2l1-7.2l2,1.5l-0.7,4.6l0,0l4.2-2l2,1.5l-6.7,2.8
		l-2.5,3.2L57,267.9z M73.6,279.2l0.6-2.5l-3-1.8l-1.9,1.7l-2-1.2l8.3-7.1l2.4,1.5l-2.5,10.6L73.6,279.2z M75.8,270.8L75.8,270.8
		l-3.1,2.7l2,1.2L75.8,270.8z M90,285.7L90,285.7c-0.6,0.9-1.8,1.2-3.3,0.5c-2.2-1-3.1-3.4-1.7-6.6c1.5-3.2,4-4.1,6.5-3
		c1.7,0.8,2.6,2.1,2.6,3.9l-2.1,0.2c0-0.9-0.3-1.7-1.4-2.2c-1.3-0.6-2.4-0.2-3.2,1.3l-0.7,1.5c-0.7,1.6-0.2,2.7,1,3.3
		c1,0.5,2.1,0.4,2.5-0.6l0.2-0.5l-1.8-0.8l0.8-1.7l3.7,1.7l-2.4,5.3l-1.7-0.8L90,285.7z M100.3,291.5l3.2-9.9l6.7,2.2l-0.6,1.9
		l-4.6-1.5l-0.7,2l3.9,1.3l-0.6,1.9l-3.9-1.3l-0.7,2.1l4.6,1.5l-0.6,1.9L100.3,291.5z M116.1,294.5l1.8-1.2c0.5,0.9,1.3,1.5,2.3,1.7
		c1.1,0.2,1.7-0.2,1.9-0.9c0.1-0.6,0-1-1-1.3l-1-0.3c-2.1-0.7-2.9-2-2.5-3.7c0.4-1.8,2.1-2.8,4.5-2.3c1.5,0.3,2.6,1.1,3.2,2.1
		l-1.8,1.2c-0.4-0.7-0.9-1.2-2-1.4c-1-0.2-1.6,0.1-1.7,0.7c-0.1,0.7,0.2,1,1,1.3l1,0.4c2,0.8,2.8,1.9,2.5,3.7c-0.4,2-2.1,3-4.6,2.5
		C117.9,296.6,116.8,295.7,116.1,294.5z M143.7,294.6c0.1-3.5,1.9-5.4,4.7-5.4c1.9,0,3.1,0.8,3.8,2.5l-2,1c-0.3-0.9-0.8-1.5-1.9-1.5
		c-1.3,0-2.2,0.9-2.2,2.5l0,1.7c0,1.6,0.8,2.5,2.2,2.6c1.1,0,1.8-0.7,2.1-1.5l1.8,1.1c-0.8,1.6-2.1,2.5-4,2.4
		C145.4,300,143.7,298.1,143.7,294.6z M161.4,299.4l-1-10.4l2.3-0.2l0.8,8.4l3.9-0.4l0.2,2L161.4,299.4z M176.7,297.5l-2-10.2
		l6.9-1.4l0.4,2l-4.7,0.9l0.4,2.1l4-0.8l0.4,2l-4,0.8l0.4,2.2l4.7-0.9l0.4,2L176.7,297.5z M191.1,288.9c-1.1-3.4,0.1-5.7,2.7-6.5
		c2.6-0.9,4.9,0.3,6,3.7c1.1,3.4-0.1,5.7-2.7,6.5C194.5,293.4,192.2,292.2,191.1,288.9z M197.7,287.5l-0.5-1.5
		c-0.5-1.6-1.6-2.2-2.9-1.8c-1.3,0.4-1.8,1.6-1.3,3.1l0.5,1.5c0.5,1.6,1.6,2.2,2.9,1.8C197.8,290.2,198.2,289.1,197.7,287.5z
		 M210.3,287.4l-4.4-9.4l4.5-2.1c1.8-0.8,3.4-0.1,4.3,1.7c0.8,1.8,0.3,3.5-1.5,4.3l-2.4,1.1l1.6,3.4L210.3,287.4z M209.9,281.3
		l2.2-1c0.6-0.3,0.8-0.8,0.6-1.4l-0.3-0.6c-0.3-0.6-0.8-0.8-1.4-0.5l-2.2,1L209.9,281.3z M230.4,276.8l-1.9-1.7l-3,1.8l0.6,2.5
		l-2,1.2l-2.4-10.7l2.4-1.4l8.3,7.2L230.4,276.8z M223.9,270.9L223.9,270.9l1,4l2-1.2L223.9,270.9z M237.4,261.7l5.1,6.7l-1.8,1.4
		l-5.1-6.7l-2.2,1.7l-1.2-1.6l6.3-4.8l1.2,1.6L237.4,261.7z M253.4,259.1l-1.6,1.6l-7.2-7.5l3.6-3.4c1.4-1.3,3.2-1.2,4.6,0.2
		c1,1,1.3,2.3,0.7,3.5l4.3,1.5l-1.8,1.7l-3.9-1.5l-1.2,1.1L253.4,259.1z M251.1,253.3c0.5-0.5,0.5-1,0.1-1.5l-0.5-0.5
		c-0.5-0.5-1-0.5-1.5,0l-1.7,1.6l1.9,2L251.1,253.3z M268.2,243l-2.4-1l-2.2,2.7l1.4,2.2l-1.5,1.8l-5.8-9.3l1.8-2.2l10.2,4
		L268.2,243z M260.2,239.6L260.2,239.6l2.3,3.5l1.5-1.8L260.2,239.6z M155.6,238l-2.4,5.7l-4.8,11.3l-2.6,5.7l1.1-8.6l-4.1-8
		c-0.5-1-10.5-21-15.6-40.1c-3.4,3.8-8.5,9.6-8.5,9.6s-7.4,7.8-10.1,10.6l8.9-13.5c-2.1-5.4-6.4-17.4-8.8-30.5
		c0,0-24.2,29.9-51.8,45.3c22.6,26.2,56,42.8,93.3,42.8c9,0,17.7-1,26.1-2.8C169.2,258.4,161.5,249.1,155.6,238z M102.9,178.1
		c1.1-3.5,2.3-7,3.7-10.5l-0.8-8.7c-4.1,8.3-7.2,17.3-9.3,26.3C96.5,185.2,101.6,179.7,102.9,178.1z M88.6,193.4
		c2.6-16.4,8.3-32.1,16.8-46.5l0.2-8.3c-11.9,17.9-19.6,38.3-22.1,59.6C83.6,198.2,87.2,194.8,88.6,193.4z M96.2,113.3
		C72.9,141.5,60.2,177,60.2,213.7c0,1.1,0,2,0,3c0,0,2.9-1.9,4.3-2.9c0-33.9,11.1-66.6,31.5-93.4 M75.7,205.2
		c1.4-23.6,8.6-46.4,20.9-66.4l-0.5-7c-15.2,22.8-23.9,49.5-24.9,77C71.2,208.8,74.4,206.3,75.7,205.2z M133.9,46.2
		c8.6-4.2,18.3-6.6,28.5-6.6c10.2,0,19.9,2.4,28.5,6.6l2.6-5.2c-9.4-4.6-19.9-7.2-31.1-7.2c-11.2,0-21.7,2.6-31.1,7.2L133.9,46.2z
		 M162.4,45.3c-18.9,0-35.8,9-46.6,22.9c-0.3,0.4-0.6,0.8-0.9,1.1c-1.2,1.2-2.3,2.1-3.5,2.7c-2.8,1.6-6.4,1.2-8.8-0.9L76.8,49.9
		c-2.2-1.8-5.6-0.3-5.6,2.6v18.3c0,3.6,2.7,6.7,6.4,7.1l18.4,2H60.9l0.8,0.7c2.5,2.3,5.8,3.6,9.1,3.6h4.1c3.3,3.4,7.6,5.5,12.3,6
		l17.6,2l37.8,4.2h-38.6c-3.4,19.1-1.9,37.5-1.9,37.5l10.1-4.2c-4.6,39.8,8.3,73.1,8.3,73.1l9.9-11.1c2.7,20.9,17.6,49.9,17.6,49.9
		l7.6-17.9c11.2,31.9,42.2,52.5,42.7,52.8c-0.3-0.7-26.1-63.3-32.5-159.5c0,0-2.3-15.9,10.8-27.5c0,0,8.2-8.9,24.8-8.2
		c0,0,8.9,0.5,16.2,2.1C209,61.2,187.5,45.3,162.4,45.3z M140.5,58c-19.6,8.9-27.7,28.6-27.7,28.6s3.8-18,22.5-29
		c0,0,10.9-7.3,26.1-7c0,0,10.7-0.3,20.8,4.9C157.6,48.2,140.5,58,140.5,58z M52.9,221.1c-0.1-2.1-0.1-5.3-0.1-7.3
		c0-42.1,16.1-82.5,44.6-113.1l1.2-7.5c-14.5,14.4-26.2,31.1-34.8,49.8c-10.2,22.3-15.4,46.1-15.4,70.8c0,2.5,0.1,7.2,0.2,9.7
		L52.9,221.1z M227.6,71.4c1.5-3.8,5.8-5.5,9.4-3.7c0,0,0.1,0,0.1,0c-8.1-12.4-14.7-3.8-14.7-3.8c-3.4,3.5-7.4,2.8-7.4,2.8
		c5.2,6.1,7.6,13.5,7.4,13.4C224.9,77.9,226.6,74,227.6,71.4z M150.2,271.1c-38.6,0-73.2-17.4-96.3-44.8c-3.2,0.9-6.4,1.7-9.5,2.4
		c0,0,22.7,32.3,66.7,45.5c0,0,34.3,12.5,75.6,0.7c-2.4-1.9-5.1-4.3-8-7.1C169.5,270,160,271.1,150.2,271.1z M243.7,225
		c-29.3-9.6-49.1-22.7-49.1-22.7c-3.1,23.4,0.5,44.1,3.6,56.1C215.9,251,231.5,239.4,243.7,225z M199,261.3c1.5,5.4,2.7,8.4,2.7,8.4
		c34.5-13.7,54.2-41.1,54.2-41.1c-3.2-0.8-6.2-1.7-9.2-2.7C233.9,241.3,217.6,253.4,199,261.3z M60.2,216.7 M219.6,170
		c0,0,6.1,0.1,8.3-3.5c0,0,1.9-3.7-0.9-8.2c-0.7-1.2-2-3-1-4.1c1.7-1.7,2.3-3.3,2.5-4.3c0.2-0.7,0.1-1.4-0.1-2
		c-0.8-2.1-3.1-2.6-3.1-2.6s1.5-0.3,3-1c1.9-0.8,2.5-2.9,1.3-4.6c-0.9-1.2-1.7-3-1.9-5.1c-0.1-1.1,0.5-2.2,1.5-2.6
		c0,0,3.6-1.1,5.5-2.4c0,0,3.7-1.7-2.3-8.7c-1.4-1.6-2.7-3.1-4-4.7l-0.7-0.9c-0.3-0.3-0.6-0.7-0.9-1.1c-3.1-4.2-4.9-9.2-5.3-14.4
		c-0.2-2.7-0.7-6.8-1.9-10.3l-3.1-0.7c-6.6-1.5-14.7-1.9-15.2-2c-0.5,0-1,0-1.5,0c-12.2,0-18.3,5.9-18.9,6.4l-0.1,0.1l-0.3,0.2
		c-10.4,9.2-9,21.6-8.9,22.4l0,0.2l0,0.3c2.7,41.5,9.2,76.4,15.1,101.4c0,0-1.3-22.6,5.8-37.2c2.8-5.7,8.2-9.7,14.3-10.9
		c-7-0.7-15.9-2.9-23.3-8.4c0,0,10.1,6.3,30,8.1C213.5,169.6,216.9,170.1,219.6,170z M206.9,108.2c0,1.5-1.2,2.7-2.7,2.7
		c-1.5,0-2.7-1.2-2.7-2.7c0-0.1,0-0.2,0-0.3c0.2,0,0.4,0,0.6,0c1.2,0,2.2-0.3,2.2-0.7c0-0.4-1-0.7-2.2-0.7c0,0,0,0,0,0
		c0.1-0.2,0.3-0.4,0.5-0.5c-1.5-0.1-3.2,0.1-4.9,0.6c-0.8,0.2-1.6,0.5-2.4,0.8c-0.7,0.3-1.8,0.7-3.1,1.2c0,0,0,0,0,0
		c0,0,9.5,5.6,19.9,0.9c0,0-1.8,1.5-4.8,2.4c0,0,0,0,0,0c0,0-0.6,0.2-0.9,1c-0.2,0.6-0.1,1.3,0.2,1.8c0.4,0.6,1.1,1.3,2.8,1.2
		c0.4,0,0.9-0.1,1.3-0.2c0.2,0,0.4-0.1,0.6-0.2c-5.4,2.6-6.1,10.2-6.1,10.2l0,0c-0.3-1.9-0.2-5-0.2-6.9c0-1.1,0.1-2.2,0.1-3.3
		c0-0.7,0-1.4,0-2.2c-0.2,0.1-0.3,0.2-0.5,0.3c-0.5,0.4-1,0.8-1.5,1.2c-1,0.9-1.9,1.9-2.8,3c-1,1.2-2.1,2.3-3.3,3.3
		c-0.8,0.7-1.7,1.4-2.6,2c-1.3,0.9-2.7,1.6-4.3,2c-0.9,0.2-1.8,0.3-2.8,0.3c-0.8,0-1.5-0.1-2.2-0.3c-0.9-0.3-1.7-0.8-2.3-1.5
		c-0.4-0.6-0.8-1.3-0.8-2c0-0.9,0-1.7,0.5-2.5c0.5-0.9,1.4-1.5,2.4-1.6c0.6-0.1,1.2-0.1,1.8,0.1c1.2,0.4,2.1,1.3,2.4,2.6
		c0.1,0.5,0,1.1-0.2,1.5c-0.4,0.8-1.3,1.3-2.3,1.2c-0.4,0-0.9-0.2-1.3-0.8c-0.3-0.5-0.4-1.1-0.3-1.7c0.2-0.6,0.7-1.1,1.4-1.1
		c0.1,0,0.1,0,0.2,0c0,0,0,0,0-0.1c-0.2,0-0.3-0.1-0.5-0.1c-0.6-0.1-1.1-0.1-1.7,0.3c-0.4,0.3-0.7,0.7-0.7,1.2
		c-0.1,0.5-0.1,1,0.1,1.5c0.5,1.1,1.3,1.7,2.4,1.9c0.4,0.1,0.9,0.1,1.3,0.1c1.2,0,2.4-0.3,3.5-0.8c1.4-0.6,2.7-1.4,3.9-2.4
		c1.6-1.3,3-2.8,4.5-4.2c1.1-1.1,1.2-1.2,1.7-1.9c0.1-0.2,0.3-0.3,0.4-0.5c0,0,0.8-0.9,2-1.6c-3.3,0.2-7.5-0.6-12-3.8
		c-4.2,1.5-10.7,3-16.8-0.9c9.1,3,19-2.4,19-2.4c2.4-1.3,6.1-1.6,6.1-1.6c4.3-0.2,8.6,1.2,11.8,4.2c0.8,0.8,1.5,1.6,2.1,2.6
		c0,0-2.9-2.8-7.3-4.1C206.7,107.1,206.9,107.6,206.9,108.2z M196.1,99.6c0,0-9,4.3-17-0.1c0,0,8.2,2,16.5-2.1
		c0,0,11.7-5.6,18.4,4.4C214,101.7,206.7,94.8,196.1,99.6z M225.8,131.1c-0.6,0.2-1.1,0.4-1.7,0.6c-0.3,0.1-0.8,0.3-1.5,0.2
		c-1.3,0-2.3-1-2.3-2.3c0-0.8,0.4-1.9,1.6-3.2c0,0-0.6,1-0.6,2.2c0,1.2,1,2.3,2.2,2.2c0.3,0,0.6-0.1,0.9-0.2
		c2.5-0.7,4.2-0.7,5.4-0.6C229.8,130.1,227.7,130.5,225.8,131.1z"/>
</g>
</svg>
