<svg xmlns="http://www.w3.org/2000/svg" xmlns:xlink="http://www.w3.org/1999/xlink" viewBox="0 0 266.67 89.9"><defs><style>.cls-1{fill:url(#linear-gradient);}.cls-2{fill:url(#linear-gradient-10);}.cls-3{fill:#443427;}.cls-4{fill:url(#linear-gradient-17);}.cls-5{fill:url(#linear-gradient-18);}.cls-6{fill:url(#linear-gradient-19);}.cls-7{fill:url(#linear-gradient-20);}</style><linearGradient id="linear-gradient" x1="181.24" y1="49.55" x2="181.24" y2="18.11" gradientUnits="userSpaceOnUse"><stop offset="0" stop-color="#f9f295"/><stop offset="0.38" stop-color="#e0aa3e"/><stop offset="0.7" stop-color="#e0aa3e"/><stop offset="1" stop-color="#b88a44"/></linearGradient><linearGradient id="linear-gradient-10" x1="167.97" y1="78.1" x2="167.97" y2="49" xlink:href="#linear-gradient"/><linearGradient id="linear-gradient-17" x1="264.37" y1="28.73" x2="264.37" y2="24.14" xlink:href="#linear-gradient"/><linearGradient id="linear-gradient-18" x1="263.31" y1="26.44" x2="265.43" y2="26.44" xlink:href="#linear-gradient"/><linearGradient id="linear-gradient-19" x1="22.24" y1="5.97" x2="64.13" y2="78.54" xlink:href="#linear-gradient"/><linearGradient id="linear-gradient-20" x1="21.5" y1="14.79" x2="62.8" y2="86.32" xlink:href="#linear-gradient"/></defs><g id="Layer_2" data-name="Layer 2"><g id="Layer_1-2" data-name="Layer 1"><path class="cls-1" d="M112.34,19.78c6.06,0,9.5,3.14,9.34,8l-4.62-.67c.34-3.35-1.14-5.62-4.72-5.62-4.78,0-6.65,3.78-6.65,9.63s1.54,9.64,6.32,9.64c3.91,0,5.39-2.28,5-6l4.62-.67c.16,5.22-3.28,8.36-9.67,8.36-7.43,0-10.94-4.18-10.94-11.37S104.92,19.78,112.34,19.78Z"/><path class="cls-1" d="M129.77,38.18c0,2.14.47,2.94,1.68,2.94v1.07h-8V41.12c1.2,0,1.67-.8,1.67-2.94V22.12c0-2.14-.47-2.94-1.67-2.94V18.11h2.2c2.61,0,4.08.2,4.08,2.94Z"/><path class="cls-1" d="M149,35.9c.33,3.58-2.31,6.62-7.33,6.62-6.49,0-9.1-3.57-9.1-8.26,0-5.68,3.82-9.13,9.44-9.13,4.14,0,7.09,1.77,7.09,4.92,0,5.12-7.43,5.68-11.91,4.55,0,3.38,1.37,6.19,4.35,6.19,2.07,0,3.28-.94,2.84-4Zm-11.74-3.11c4.75,1.14,7.22-.07,7.22-2.84,0-2-1-3.08-2.91-3.08C138.74,26.87,137.53,29.15,137.27,32.79Z"/><path class="cls-1" d="M160.21,25.13c6.33,0,9.17,4.18,9.17,8.7s-2.84,8.69-9.17,8.69-9.16-4.18-9.16-8.69S153.89,25.13,160.21,25.13Zm.94,15.59c3.14-.4,4.11-3.21,3.58-7.46s-2.14-6.72-5.45-6.32c-3.15.4-4.12,3.21-3.58,7.46S157.84,41.12,161.15,40.72Z"/><path class="cls-1" d="M183.4,42.52a6.92,6.92,0,0,1-6.26-3.47h-.33v6.48c0,2.14.46,2.95,1.67,2.95v1.07h-8V48.48c1.2,0,1.67-.81,1.67-2.95v-16c0-2.14-.47-2.94-1.67-2.94V25.47h2.21c2.6,0,4.08.16,4.08,2.5v.64h.33a6.91,6.91,0,0,1,6.26-3.48c4.28,0,7.86,3,7.86,8.7S187.68,42.52,183.4,42.52Zm-1.58-15.65c-3.14,0-4.68,2.78-4.68,7s1.54,7,4.68,7,4.49-2.78,4.49-7S185,26.87,181.82,26.87Z"/><path class="cls-1" d="M211,39.58v1.27a3.74,3.74,0,0,1-3.11,1.34c-1.24,0-3-.33-3.18-2.24v-.24h-.33c-1,1.58-3.11,2.81-6.09,2.81-3.51,0-5.39-1.37-5.39-4.18,0-4.85,7.09-6,11.78-6.52-.14-3.44-.77-4.95-3.45-4.95s-3.81,1.54-2.81,4.12l-4.41.86c-1-3.67,1.7-6.72,7.69-6.72,5.45,0,7.63,2.24,7.63,8.23V38C209.29,39.92,209.89,40.22,211,39.58Zm-6.29-4.21V33.53c-3.95.43-7.19,1.9-7.19,4.61,0,1.78.73,2.65,2.37,2.65,2.88,0,4.82-2.81,4.82-5Z"/><path class="cls-1" d="M223.77,39.68c-.67,1.91-2.24,2.84-5,2.84s-5.69-1-5.69-5.41v-9.9h-2.41V25.47c2.58-.34,4.08-1.07,4.08-5.36h2.95v5.36h5.05c0,1.07,0,1.74-1.61,1.74h-3.44V36.5c0,2.65,0,4.29,1.37,4.29.83,0,1.2-.44,1.27-1.78Z"/><path class="cls-1" d="M241.73,32.86l-4.61-.67c1.74-3.91,1.14-5.32-.47-5.32-2.91,0-5.12,4.72-5.12,9.3v2c0,2.14.47,2.94,1.68,2.94v1.07h-8V41.12c1.21,0,1.68-.8,1.68-2.94v-8.7c0-2.14-.47-2.94-1.68-2.94V25.47h2.21c2.61,0,4.08.16,4.08,2.77v2h.34c.67-2.14,2.71-5.15,6.42-5.15S243.07,27.84,241.73,32.86Z"/><path class="cls-1" d="M261.4,39.58v1.27a3.74,3.74,0,0,1-3.11,1.34c-1.23,0-3-.33-3.18-2.24v-.24h-.33c-1,1.58-3.11,2.81-6.09,2.81-3.51,0-5.38-1.37-5.38-4.18,0-4.85,7.09-6,11.77-6.52-.13-3.44-.77-4.95-3.44-4.95s-3.82,1.54-2.81,4.12l-4.42.86c-1-3.67,1.71-6.72,7.7-6.72,5.45,0,7.62,2.24,7.62,8.23V38C259.73,39.92,260.33,40.22,261.4,39.58Zm-6.29-4.21V33.53c-3.94.43-7.19,1.9-7.19,4.61,0,1.78.74,2.65,2.38,2.65,2.88,0,4.81-2.81,4.81-5Z"/><path class="cls-2" d="M126.39,50.07c-1.3,0-2.51.67-3.31,2.65l-7.36,18.36h-5l-7.36-18.36c-.8-2-2-2.65-3.31-2.65V49H110.2v1.07c-2.4,0-2.64.67-1.84,2.65l6.43,16,6.42-16c.8-2,.57-2.65-1.84-2.65V49h7Z"/><path class="cls-2" d="M132.55,54c6.32,0,9.16,4.18,9.16,8.7s-2.84,8.69-9.16,8.69-9.17-4.18-9.17-8.69S126.23,54,132.55,54Zm.94,15.59c3.14-.4,4.11-3.21,3.57-7.46s-2.14-6.73-5.45-6.32c-3.14.4-4.11,3.21-3.58,7.46S130.17,70,133.49,69.61Z"/><path class="cls-2" d="M163.89,55.42c-1.44,0-2.71.67-3.51,2.65l-5.79,14.38c-1.47,3.58-3.07,5.32-6.55,5.32-4,0-6.09-2.34-4.72-6l4.62.67c-1.54,2.67-.54,3.61.8,3.61,1.54,0,2.91-.94,4-3.58l.53-1.37h-3.71l-5.18-13c-.8-2-2.08-2.65-3.51-2.65V54.35h10.3v1.07c-2.41,0-2.64.67-1.88,2.65l4.62,11.44,4.62-11.44c.8-2,.56-2.65-1.84-2.65V54.35h7.22Z"/><path class="cls-2" d="M181,68.47v1.27a3.75,3.75,0,0,1-3.12,1.34c-1.23,0-3-.34-3.17-2.24V68.6h-.34c-1,1.57-3.11,2.81-6.08,2.81-3.52,0-5.39-1.37-5.39-4.18,0-4.85,7.09-6,11.77-6.52-.13-3.45-.77-5-3.44-5s-3.81,1.54-2.81,4.11l-4.42.87c-1-3.68,1.71-6.72,7.7-6.72,5.45,0,7.62,2.24,7.62,8.23v4.68C179.31,68.8,179.91,69.1,181,68.47Zm-6.29-4.21V62.42c-3.95.43-7.19,1.9-7.19,4.61,0,1.77.73,2.64,2.37,2.64,2.88,0,4.82-2.81,4.82-5Z"/><path class="cls-2" d="M198.65,57.83c.47-1.4,0-1.87-.6-1.87a1.56,1.56,0,0,0-1.17.5,5.53,5.53,0,0,1,1.2,3.58c0,3.51-2.71,6-7.63,6a12,12,0,0,1-3.24-.43c-.64.46-.9.83-.9,1.27,0,.93,1.07,1,4.61.7,4.79-.37,8.3.87,8.3,4.72,0,4.14-4.05,5.78-8.53,5.78-4.65,0-9.4-1.47-8.06-6.79l4.61.67c-1.34,3.55.81,4.38,3.41,4.38s3.95-1.23,3.95-3.38c0-2.54-1.8-2.81-4.88-2.74-4.28.17-6.42-.16-6.42-2.31A3.41,3.41,0,0,1,185.74,65,5.4,5.4,0,0,1,182.83,60c0-3.51,2.71-6,7.62-6a8.75,8.75,0,0,1,5.39,1.51A3.69,3.69,0,0,1,198.92,54c2.37,0,2.87,1.57,2.61,3.14Zm-5.25,1.68c-.67-2.75-2-4.12-4.15-3.58-1.81.43-2.31,2.34-1.74,4.65.64,2.74,2,4.14,4.15,3.57C193.46,63.69,194,61.81,193.4,59.51Z"/><path class="cls-2" d="M218.35,64.79c.34,3.58-2.31,6.62-7.32,6.62-6.49,0-9.1-3.58-9.1-8.26,0-5.69,3.81-9.13,9.43-9.13,4.15,0,7.09,1.77,7.09,4.92,0,5.11-7.42,5.68-11.91,4.55,0,3.37,1.38,6.18,4.35,6.18,2.08,0,3.28-.93,2.85-4Zm-11.74-3.11c4.75,1.14,7.23-.07,7.23-2.84,0-2-1-3.08-2.91-3.08C208.08,55.76,206.88,58,206.61,61.68Z"/><path class="cls-2" d="M228,54c4.24,0,8.53,1.47,7.19,6.19l-4.62-.67c1-3-.8-3.78-2.47-3.78-2,0-2.75,1-2.75,2.17,0,1.54.77,2.14,3.75,3,3.55,1,6.79,1.84,6.79,5.35,0,3.85-3.45,5.15-7.26,5.15-4.65,0-9.33-1.47-8-7.12l4.61.67c-1.33,3.81.67,4.71,3.11,4.71,2.08,0,2.91-1.1,2.91-2.57,0-1.91-1.63-2.44-4-3.18-3.68-1-6.49-1.94-6.49-5.22S223.91,54,228,54Z"/><path class="cls-3" d="M264.37,28.73a2.3,2.3,0,1,1,2.3-2.29A2.3,2.3,0,0,1,264.37,28.73Zm0-4.27a2,2,0,1,0,2,2A2,2,0,0,0,264.37,24.46Z"/><path class="cls-4" d="M264.37,28.73a2.3,2.3,0,1,1,2.3-2.29A2.3,2.3,0,0,1,264.37,28.73Zm0-4.27a2,2,0,1,0,2,2A2,2,0,0,0,264.37,24.46Z"/><path class="cls-3" d="M264.91,27.69l-.61-.87h-.55v.87h-.44v-2.5h1.12a1.12,1.12,0,0,1,.38.06.62.62,0,0,1,.29.15.67.67,0,0,1,.19.25.88.88,0,0,1,.06.33.79.79,0,0,1,0,.28.78.78,0,0,1-.12.22l-.19.16a.87.87,0,0,1-.24.1l.67,1Zm-.14-2a.61.61,0,0,0-.38-.1h-.64v.84h.64a.58.58,0,0,0,.38-.12.41.41,0,0,0,0-.62Z"/><path class="cls-5" d="M264.91,27.69l-.61-.87h-.55v.87h-.44v-2.5h1.12a1.12,1.12,0,0,1,.38.06.62.62,0,0,1,.29.15.67.67,0,0,1,.19.25.88.88,0,0,1,.06.33.79.79,0,0,1,0,.28.78.78,0,0,1-.12.22l-.19.16a.87.87,0,0,1-.24.1l.67,1Zm-.14-2a.61.61,0,0,0-.38-.1h-.64v.84h.64a.58.58,0,0,0,.38-.12.41.41,0,0,0,0-.62Z"/><path class="cls-6" d="M6.83,68.16a44.48,44.48,0,1,1,75.29,0l-1.1-.7a43.18,43.18,0,1,0-73.09,0Z"/><path class="cls-7" d="M9.22,73,11,70.28l.44.53-.86,1.31-.6.82h0l.91-.44,1.45-.6.42.52L9.7,73.63Zm3.87,2a1.39,1.39,0,1,1,2,1.9,1.39,1.39,0,1,1-2-1.9Zm1.29,1.57.33-.33c.34-.36.36-.73.07-1a.66.66,0,0,0-1,.1l-.32.34c-.35.35-.37.73-.07,1S14,77,14.38,76.65Zm2.22,3.63.74-1,.31-2.15.6.46L18,79h0l1.26-.6.59.45-2,.86-.75,1Zm5,3.38.2-.74-.89-.54-.58.51-.59-.35,2.5-2.13.71.43L22.19,84Zm.67-2.51,0,0-.91.84.61.37Zm4.25,4.46h0a.72.72,0,0,1-1,.17c-.65-.3-.93-1-.5-2a1.41,1.41,0,0,1,2-.9,1.25,1.25,0,0,1,.79,1.16l-.63.06a.7.7,0,0,0-1.35-.27l-.21.46a.66.66,0,0,0,.31,1c.31.14.63.1.75-.17l.07-.14-.53-.25.23-.51,1.12.51-.72,1.58-.52-.24Zm3.08,1.75,1-3,2,.66-.19.57L31,85.18l-.2.6,1.18.38-.18.57-1.18-.38-.21.64,1.38.45L31.6,88Zm4.73.9.53-.35a1,1,0,0,0,.7.5c.32.07.51,0,.55-.27s0-.3-.28-.4l-.3-.1c-.63-.21-.86-.59-.75-1.1s.62-.84,1.33-.7a1.43,1.43,0,0,1,1,.65l-.54.35a.82.82,0,0,0-.59-.42c-.3-.06-.47,0-.51.21s0,.31.3.4l.29.11c.61.23.85.57.75,1.1s-.63.9-1.4.75A1.55,1.55,0,0,1,34.31,88.26Zm8.28,0c0-1,.56-1.62,1.4-1.61a1.16,1.16,0,0,1,1.16.75l-.59.3a.55.55,0,0,0-.58-.44c-.39,0-.66.25-.67.74v.5c0,.5.25.77.65.77a.63.63,0,0,0,.63-.45l.55.33a1.23,1.23,0,0,1-1.19.73C43.1,89.88,42.57,89.34,42.59,88.28Zm5.29,1.45-.29-3.11.68-.06.23,2.51L49.68,89l.06.6Zm4.61-.58-.62-3.05L54,85.68l.12.59-1.41.28.12.63L54,86.94l.11.58-1.21.25.13.66,1.42-.29.12.59Zm4.29-2.59c-.33-1,0-1.7.8-2s1.48.1,1.81,1.11,0,1.7-.81,2S57.11,87.56,56.78,86.56Zm2-.41-.15-.44c-.15-.47-.47-.66-.86-.54s-.53.47-.38.94l.15.45c.15.47.47.66.86.53S58.93,86.62,58.78,86.15Zm3.75,0L61.22,83.3l1.34-.62a1,1,0,0,1,.83,1.8l-.72.34.48,1Zm-.1-1.83.64-.31a.28.28,0,0,0,.17-.41l-.08-.18a.29.29,0,0,0-.43-.14l-.65.3Zm6.13-1.35L68,82.43l-.89.53.19.75-.59.36L66,80.87l.72-.43,2.48,2.14Zm-1.93-1.76,0,0,.32,1.19.61-.37Zm4-2.77,1.52,2-.54.41-1.52-2-.67.51-.36-.48L71,77.42l.36.48Zm4.79-.77L75,78.1,72.8,75.85l1.07-1a.91.91,0,0,1,1.37.07.88.88,0,0,1,.21,1l1.29.46-.55.52L75,76.47l-.35.34Zm-.67-1.74a.28.28,0,0,0,0-.44l-.13-.15a.29.29,0,0,0-.45,0l-.52.49.56.59Zm5.13-3.07-.72-.3-.66.8L79,74l-.44.53-1.75-2.78.54-.65,3,1.21Zm-2.4-1,0,0,.7,1,.45-.55Zm-31.36-.47-.73,1.72L44,76.43l-.79,1.71.34-2.59-1.23-2.39a71.12,71.12,0,0,1-4.68-12c-1,1.13-2.55,2.87-2.55,2.87s-2.21,2.34-3,3.17l2.67-4.06A51.3,51.3,0,0,1,32.1,54s-7.24,9-15.52,13.59a36.83,36.83,0,0,0,35.76,12A35.75,35.75,0,0,1,46.15,71.33ZM30.35,53.38c.32-1.07.7-2.11,1.12-3.14l-.24-2.62a38,38,0,0,0-2.79,7.89S30,53.84,30.35,53.38ZM26.06,58A39.38,39.38,0,0,1,31.11,44l.07-2.49a41,41,0,0,0-6.61,17.85S25.64,58.39,26.06,58Zm2.28-24A47.37,47.37,0,0,0,17.57,64c0,.32,0,.6,0,.9,0,0,.86-.57,1.28-.87a46.16,46.16,0,0,1,9.42-28M22.21,61.48a42.78,42.78,0,0,1,6.27-19.9l-.15-2.08a44.3,44.3,0,0,0-7.46,23.07ZM39.66,13.84a19.45,19.45,0,0,1,17.08,0l.77-1.54a21.14,21.14,0,0,0-18.62,0Zm8.54-.26a17.62,17.62,0,0,0-14,6.86c-.09.12-.18.23-.28.34a4.6,4.6,0,0,1-1,.83,2.4,2.4,0,0,1-2.66-.27L22.54,15a1,1,0,0,0-1.68.79v5.49a2.15,2.15,0,0,0,1.91,2.13l5.5.61H17.77l.23.22a4.09,4.09,0,0,0,2.74,1.06H22a6.08,6.08,0,0,0,3.67,1.8l5.28.58L42.23,28.9H30.67a49.83,49.83,0,0,0-.58,11.23l3-1.27A51.08,51.08,0,0,0,35.6,60.75l3-3.32c.79,6.25,5.28,14.94,5.28,14.94L46.11,67c3.35,9.57,12.65,15.74,12.79,15.83-.09-.22-7.83-19-9.74-47.8a9.89,9.89,0,0,1,3.25-8.25s2.45-2.67,7.44-2.47a34,34,0,0,1,4.85.62A17.75,17.75,0,0,0,48.2,13.58Zm-6.56,3.79a17.72,17.72,0,0,0-8.3,8.56,14.57,14.57,0,0,1,6.74-8.7,14.82,14.82,0,0,1,7.81-2.09,14.25,14.25,0,0,1,6.24,1.48C46.74,14.45,41.64,17.37,41.64,17.37ZM15.39,66.24c0-.62,0-1.57,0-2.2A49.72,49.72,0,0,1,28.73,30.16l.37-2.24A50.88,50.88,0,0,0,14.07,64c0,.74,0,2.16.06,2.9ZM67.74,21.39a2.07,2.07,0,0,1,2.83-1.12h0c-2.43-3.72-4.41-1.13-4.41-1.13A2.65,2.65,0,0,1,64,20a11.46,11.46,0,0,1,2.21,4A7.29,7.29,0,0,0,67.74,21.39ZM44.52,81.24A37.64,37.64,0,0,1,15.67,67.81c-1,.27-1.91.51-2.84.71A40.37,40.37,0,0,0,55.46,82.39c-.7-.59-1.52-1.3-2.38-2.12A38.26,38.26,0,0,1,44.52,81.24Zm28-13.81a67.62,67.62,0,0,1-14.71-6.79,44.82,44.82,0,0,0,1.07,16.81A37,37,0,0,0,72.57,67.43ZM59.15,78.3A25.89,25.89,0,0,0,60,80.82a40,40,0,0,0,16.25-12.3c-1-.25-1.87-.52-2.77-.8A37.86,37.86,0,0,1,59.15,78.3Zm6.17-27.37s1.83,0,2.47-1.06a2.64,2.64,0,0,0-.26-2.46c-.21-.35-.62-.9-.32-1.21A2.84,2.84,0,0,0,68,44.9a1.15,1.15,0,0,0,0-.61,1.27,1.27,0,0,0-.92-.76,6.74,6.74,0,0,0,.9-.3.89.89,0,0,0,.38-1.37,3.29,3.29,0,0,1-.56-1.54.77.77,0,0,1,.46-.77,7,7,0,0,0,1.64-.73s1.12-.5-.69-2.59c-.41-.47-.82-.94-1.21-1.42l-.22-.25-.26-.34a8.11,8.11,0,0,1-1.57-4.32,13.18,13.18,0,0,0-.57-3.08l-.93-.21A30.8,30.8,0,0,0,59.83,26h-.45A8,8,0,0,0,53.73,28l0,0-.08.07a8.1,8.1,0,0,0-2.68,6.73v.13a187.9,187.9,0,0,0,4.52,30.39s-.38-6.78,1.74-11.14a6,6,0,0,1,4.29-3.25,14.34,14.34,0,0,1-7-2.52s3,1.89,9,2.42A11.24,11.24,0,0,0,65.32,50.93ZM61.51,32.41a.81.81,0,1,1-1.61,0,.28.28,0,0,1,0-.09h.16c.36,0,.65-.08.65-.2s-.29-.2-.65-.2h0a.75.75,0,0,1,.15-.16,4.48,4.48,0,0,0-1.46.19c-.25.07-.5.13-.73.22l-.94.37h0a6.9,6.9,0,0,0,6,.26,4.53,4.53,0,0,1-1.45.73h0a.43.43,0,0,0-.27.28.61.61,0,0,0,.06.54.85.85,0,0,0,.82.37,1.32,1.32,0,0,0,.39-.06l.18,0c-1.62.78-1.83,3.06-1.83,3.06h0a14.32,14.32,0,0,1-.06-2.07l0-1c0-.22,0-.43,0-.65a.46.46,0,0,0-.14.07l-.45.35a8.73,8.73,0,0,0-.84.88,10.18,10.18,0,0,1-1,1,9.08,9.08,0,0,1-.77.62,3.64,3.64,0,0,1-1.28.59,3.29,3.29,0,0,1-.83.08,2.53,2.53,0,0,1-.67-.1,1.31,1.31,0,0,1-.69-.46,1.13,1.13,0,0,1-.24-.61,1.25,1.25,0,0,1,.14-.74,1,1,0,0,1,.73-.49,1,1,0,0,1,.52,0,1,1,0,0,1,.71.78.75.75,0,0,1,0,.45.66.66,0,0,1-.68.36.48.48,0,0,1-.39-.23.59.59,0,0,1-.07-.5.45.45,0,0,1,.4-.34h0v0l-.14,0a.62.62,0,0,0-.5.07.55.55,0,0,0-.22.37,1,1,0,0,0,0,.45.9.9,0,0,0,.74.57,2.6,2.6,0,0,0,.4,0,2.77,2.77,0,0,0,1.05-.24,4.79,4.79,0,0,0,1.16-.72c.47-.4.91-.83,1.35-1.27a6.13,6.13,0,0,0,.51-.56.81.81,0,0,0,.12-.14,2.6,2.6,0,0,1,.6-.49,5.52,5.52,0,0,1-3.59-1.13,5.6,5.6,0,0,1-5-.25c2.74.9,5.7-.71,5.7-.71a5.86,5.86,0,0,1,1.81-.48,4.76,4.76,0,0,1,3.54,1.26,3.47,3.47,0,0,1,.63.78A5.75,5.75,0,0,0,61.39,32,.77.77,0,0,1,61.51,32.41Zm-3.22-2.57a6.1,6.1,0,0,1-5.1,0,7.93,7.93,0,0,0,5-.64s3.5-1.67,5.5,1.32A4.94,4.94,0,0,0,58.29,29.84Zm8.88,9.44-.51.17a1.15,1.15,0,0,1-.44.08.67.67,0,0,1-.68-.68,1.6,1.6,0,0,1,.49-1,1.65,1.65,0,0,0-.19.67.62.62,0,0,0,.66.65,1.51,1.51,0,0,0,.28-.05A4.63,4.63,0,0,1,68.39,39S67.75,39.11,67.17,39.28Z"/></g></g></svg>